<?xml version="1.0" encoding="UTF-8" standalone="no"?>
<svg
        width="8.9984818mm"
        height="11.535827mm"
        viewBox="0 0 8.9984818 11.535827"
        version="1.1"
        id="svg1"
        xmlns="http://www.w3.org/2000/svg">

    <defs>
        <!-- Define the linear gradient -->
        <linearGradient id="gradient1" x1="0%" y1="0%" x2="100%" y2="100%">
            <stop offset="0%" style="stop-color:#0075FF; stop-opacity:1" />
            <stop offset="100%" style="stop-color:#21D4FD; stop-opacity:1" />
        </linearGradient>
    </defs>

    <!-- Define shapes using gradient -->
    <g id="layer1" transform="translate(-82.749763,-142.66334)">
        <g id="g20" transform="matrix(0.26458333,0,0,0.26458333,82.749761,142.66598)">
            <g id="g2">
                <polygon
                        fill="url(#gradient1)"
                        points="34.01,14.53 28.38,17.2 22.78,19.86 17.23,22.5 17.23,17.21 28.38,11.92 34.01,9.24 "
                        id="polygon1" />
                <polygon
                        fill="url(#gradient1)"
                        points="22.73,40.97 17.23,43.59 17.23,38.35 22.78,35.71 28.38,33.05 28.39,33.05 28.38,33.05 28.38,27.77 28.34,27.79 22.82,30.41 17.23,33.06 17.23,27.74 22.73,25.12 28.3,22.48 28.38,22.44 34.01,19.77 34.01,25.09 34.01,25.19 34.01,30.38 34.01,30.48 34.01,35.62 33.91,35.67 28.38,38.29 28.3,38.33 "
                        id="polygon2" />
            </g>
            <g id="g4">
                <polygon
                        fill="url(#gradient1)"
                        points="6.09,27.77 6.08,27.77 0.52,25.13 0,24.88 0,9.03 6.08,11.92 17.21,17.2 17.23,17.21 17.23,22.48 17.21,22.49 11.65,19.85 6.08,17.2 6.08,22.49 6.13,22.47 11.7,25.11 17.21,27.73 17.23,27.74 17.23,33.04 17.21,33.05 11.61,30.39 "
                        id="polygon3" />
                <polygon
                        fill="url(#gradient1)"
                        points="0,30.17 0.52,30.41 6.04,33.03 6.08,33.05 11.65,35.69 11.65,35.69 17.21,38.34 17.21,38.34 17.23,38.35 17.23,43.57 17.21,43.58 11.7,40.96 6.13,38.31 6.08,38.29 0.52,35.65 0,35.41 "
                        id="polygon4" />
            </g>
            <path
                    fill="url(#gradient1)"
                    d="M 26.6,3.96 24.57,3.12 17,-0.01 0,6.81 l 17.23,8.18 7.34,-3.48 v 0 c 0,0 2.01,-0.96 2.01,-0.96 L 34.01,7.02 Z M 17.8,6.01 19.02,6.66 17.79,7.38 16.5,6.64 17.8,6 Z"
                    id="path4" />
            <path
                    fill="url(#gradient1)"
                    d="m 24.57,9.46 -6.76,-3.67 -1.74,0.86 8.5,4.86 v 0 10.9 l 1.03,-1.74 0.82,2.71 0.11,0.35 v -0.41 l 0.02,-5.25 0.02,-5.3 v -2.23 c 0,0 -2,-1.09 -2,-1.09 z M 17.79,7.39 16.5,6.65 17.8,6.01 19.02,6.66 17.79,7.38 Z"
                    id="path5" />
        </g>
    </g>

</svg>
